<svg xmlns="http://www.w3.org/2000/svg" xmlns:xlink="http://www.w3.org/1999/xlink"><symbol id="info-board-arrow" viewBox="0 0 25 25"><path fill="#FFFCF9" fill-opacity=".5" fill-rule="evenodd" d="M9.585.287h13.5a1.5 1.5 0 0 1 1.5 1.5v13.5a1.5 1.5 0 1 1-3 0V5.408L2.931 24.061A1.5 1.5 0 0 1 .81 21.939L19.463 3.287H9.585a1.5 1.5 0 0 1 0-3z" clip-rule="evenodd"/></symbol><symbol id="header-search" viewBox="0 0 24 24"><path fill="#FFFCF9" d="M15.75 0a8.15 8.15 0 0 1 5.824 2.426A8.104 8.104 0 0 1 24 8.25a8.15 8.15 0 0 1-1.125 4.16 8.392 8.392 0 0 1-2.965 2.965 8.15 8.15 0 0 1-4.16 1.125 8.135 8.135 0 0 1-2.813-.492 8.45 8.45 0 0 1-2.46-1.418l-9.2 9.187A.72.72 0 0 1 .75 24a.72.72 0 0 1-.527-.223A.72.72 0 0 1 0 23.25a.72.72 0 0 1 .223-.527l9.187-9.2a8.445 8.445 0 0 1-1.418-2.46A8.134 8.134 0 0 1 7.5 8.25a8.15 8.15 0 0 1 1.125-4.16c.36-.61.79-1.164 1.29-1.664a8.392 8.392 0 0 1 1.675-1.301A8.152 8.152 0 0 1 15.75 0zm0 15a6.6 6.6 0 0 0 2.625-.527 6.936 6.936 0 0 0 2.145-1.454 6.77 6.77 0 0 0 1.44-2.144c.36-.82.54-1.695.54-2.625 0-.93-.18-1.805-.54-2.625a6.77 6.77 0 0 0-1.44-2.145 6.771 6.771 0 0 0-2.145-1.44 6.47 6.47 0 0 0-2.625-.54c-.93 0-1.805.18-2.625.54a6.771 6.771 0 0 0-3.598 3.585A6.593 6.593 0 0 0 9 8.25a6.6 6.6 0 0 0 .527 2.625c.36.82.844 1.535 1.454 2.145a6.936 6.936 0 0 0 2.144 1.453A6.6 6.6 0 0 0 15.75 15z"/></symbol><symbol id="info-board-decrease" viewBox="0 0 18 18"><path fill="#EC708E" fill-rule="evenodd" d="M2 17.4A1.4 1.4 0 0 1 .6 16V2A1.4 1.4 0 0 1 2 .6h14A1.4 1.4 0 0 1 17.4 2v14a1.4 1.4 0 0 1-1.4 1.4H2zm7-3.36l4.368-4.536h-3.03V3.96H7.526v5.544H4.632L9 14.04z" clip-rule="evenodd"/></symbol><symbol id="info-board-more-button" viewBox="0 0 16 16"><path fill="#E27762" d="M12.8 7.7v.6H8.3v4.5h-.6V8.3H3.2v-.6h4.5V3.2h.6v4.5h4.5zM0 0v-2h-2v2h2zm16 0h2v-2h-2v2zm0 16v2h2v-2h-2zM0 16h-2v2h2v-2zM0 2h16v-4H0v4zm14-2v16h4V0h-4zm2 14H0v4h16v-4zM2 16V0h-4v16h4z"/></symbol><symbol id="info-board-increase" viewBox="0 0 18 18"><path fill="#6B56E7" fill-rule="evenodd" d="M2 .6A1.4 1.4 0 0 0 .6 2v14A1.4 1.4 0 0 0 2 17.4h14a1.4 1.4 0 0 0 1.4-1.4V2A1.4 1.4 0 0 0 16 .6H2zm7 3.36l4.368 4.536h-3.03v5.544H7.526V8.496H4.632L9 3.96z" clip-rule="evenodd"/></symbol><symbol id="info-board-new" viewBox="0 0 18 18"><path fill="#3FC2C2" fill-rule="evenodd" d="M2 17.4A1.4 1.4 0 0 1 .6 16V2A1.4 1.4 0 0 1 2 .6h14A1.4 1.4 0 0 1 17.4 2v14a1.4 1.4 0 0 1-1.4 1.4H2zm5.198-9.684v6.415H4.8V3.4h2.052l4.316 6.352h.087V3.4h2.405v10.73h-2.044L7.292 7.717h-.094z" clip-rule="evenodd"/></symbol><symbol id="info-board-play-button" viewBox="0 0 15 21"><path fill="#FFFCF9" d="M15 10.5L0 0v21l15-10.5z"/></symbol><symbol id="info-board-same" viewBox="0 0 18 18"><path fill="#777" fill-opacity=".9" fill-rule="evenodd" d="M2 17.4A1.4 1.4 0 0 1 .6 16V2A1.4 1.4 0 0 1 2 .6h14A1.4 1.4 0 0 1 17.4 2v14a1.4 1.4 0 0 1-1.4 1.4H2zm13.3-9.8H2.7v3.5h12.6V7.6z" clip-rule="evenodd"/></symbol><symbol id="notice-bar-close-button" viewBox="0 0 40 40"><path fill="#fff" fill-rule="evenodd" d="M31 11.082L29.918 10 20.5 19.417 11.082 10 10 11.083l9.418 9.417L10 29.917l1.082 1.081 9.418-9.416 9.418 9.417L31 29.916 21.582 20.5 31 11.082z" clip-rule="evenodd"/></symbol><symbol id="recommend-lecture-arrow-left" viewBox="0 0 14 24"><path fill="#282725" d="M13.031 22.875l-1.054 1.055L0 11.965 11.977 0l1.054 1.055-10.898 10.91 10.898 10.91z"/></symbol><symbol id="notice-bar-sound" viewBox="0 0 27 24"><path fill="#fff" d="M24.363 18.825L21.078 16.9a.47.47 0 0 0-.646.178l-.593 1.043a.487.487 0 0 0 .173.659l3.285 1.925a.468.468 0 0 0 .646-.178l.592-1.043a.49.49 0 0 0-.172-.659zM20.429 6.922a.479.479 0 0 0 .287.225.467.467 0 0 0 .359-.047l3.285-1.925a.487.487 0 0 0 .172-.66l-.59-1.039a.479.479 0 0 0-.286-.225.467.467 0 0 0-.36.047l-3.284 1.925a.49.49 0 0 0-.173.659l.59 1.04zm5.181 3.99H21.8a.482.482 0 0 0-.477.483v1.21c0 .265.215.483.477.483h3.811a.482.482 0 0 0 .477-.483v-1.21a.482.482 0 0 0-.477-.483zM16.435 0a.908.908 0 0 0-.518.16L5.36 7.164H.476A.482.482 0 0 0 0 7.647v8.706a.48.48 0 0 0 .476.483H5.36l10.557 7.004a.94.94 0 0 0 .518.16.962.962 0 0 0 .956-.97V.97a.962.962 0 0 0-.956-.97z"/></symbol><symbol id="recommend-lecture-arrow-right" viewBox="0 0 14 24"><path fill="#282725" d="M0 22.875l10.898-10.91L0 1.055 1.055 0 13.03 11.965 1.055 23.93 0 22.875z"/></symbol><symbol id="recommend-lecture-arrow-down" viewBox="0 0 16 10"><path fill="#FFFCF9" d="M8 8.133L15.101.8l.699.721L8 9.575.2 1.521.898.8 8 8.133z"/></symbol><symbol id="recommend-lecture-arrow-up" viewBox="0 0 16 9"><path fill="#282725" d="M14.525 8.619l-6.546-6.54-6.546 6.54L.8 7.986 7.979.8l7.179 7.186-.633.633z"/></symbol><symbol id="recommend-lecture-indic-active" viewBox="0 0 38 14"><path fill="#282725" d="M7 14h24c.642 0 1.26-.082 1.855-.246a7.347 7.347 0 0 0 1.68-.707 7.13 7.13 0 0 0 1.415-1.097 6.835 6.835 0 0 0 1.087-1.414c.307-.52.543-1.076.707-1.67C37.914 8.263 38 7.641 38 7a6.68 6.68 0 0 0-.256-1.855 6.786 6.786 0 0 0-.707-1.68A6.833 6.833 0 0 0 34.536.962a6.787 6.787 0 0 0-1.681-.707A6.683 6.683 0 0 0 31 0H7c-.642 0-1.264.085-1.865.256a6.81 6.81 0 0 0-1.67.707c-.52.301-.992.663-1.415 1.087-.424.423-.79.895-1.097 1.414-.3.52-.536 1.08-.707 1.68A6.944 6.944 0 0 0 0 7c0 .642.082 1.264.246 1.865.17.595.407 1.152.707 1.67a7.128 7.128 0 0 0 2.511 2.512c.52.3 1.076.536 1.67.707A7.057 7.057 0 0 0 7 14z"/></symbol><symbol id="recommend-lecture-indic-inactive" viewBox="0 0 14 14"><path fill="#282725" fill-opacity=".4" d="M7 0c.642 0 1.26.085 1.855.256.601.164 1.162.4 1.68.707a6.835 6.835 0 0 1 2.502 2.501c.307.52.543 1.08.707 1.68C13.914 5.74 14 6.359 14 7c0 .642-.085 1.264-.256 1.865a6.825 6.825 0 0 1-.707 1.67c-.301.52-.663.992-1.087 1.415a7.13 7.13 0 0 1-1.414 1.097c-.52.3-1.08.536-1.68.707A6.943 6.943 0 0 1 7 14a7.057 7.057 0 0 1-1.865-.246 7.398 7.398 0 0 1-1.67-.707 7.129 7.129 0 0 1-2.512-2.511 7.398 7.398 0 0 1-.707-1.67A7.057 7.057 0 0 1 0 7c0-.642.082-1.26.246-1.855.17-.601.407-1.162.707-1.68A7.1 7.1 0 0 1 2.05 2.05 6.834 6.834 0 0 1 3.464.963a6.825 6.825 0 0 1 1.67-.707A6.792 6.792 0 0 1 7 0z" opacity=".5"/></symbol><symbol id="recommend-lecture-indic-pause" viewBox="0 0 13 20"><path fill="#282725" d="M0 20V0h3.5v20H0zM9.5 0H13v20H9.5V0z"/></symbol><symbol id="find-a-store-coffee-store" viewBox="0 0 152 127"><g clip-path="url(#a)"><path fill="#D68231" d="M108.325 24.481H95.781v-4.849h12.544a3.9 3.9 0 0 0 3.902-3.889 3.9 3.9 0 0 0-3.902-3.889h-3.788v-4.85h3.788c4.834 0 8.766 3.92 8.766 8.739 0 4.818-3.932 8.738-8.766 8.738z"/><path fill="#FFB819" d="M102.106.597c4.661 0 5.325 3.672 5.017 5.44C104.538 20.837 91.587 32.09 76 32.09c-15.587 0-28.538-11.253-31.123-26.053-.309-1.767.356-5.44 5.017-5.44h52.212zm40.564 36.414H9.328v87.159H142.67V37.011z"/><path d="M23.38 75.453H9.328v6.74H23.38v-6.74zm22.192-19.665H31.521v6.74h14.051v-6.74zm43.303-2.128H74.824v6.742h14.051V53.66zM67.21 41.22H53.157v6.742h14.051V41.22zm75.461 22.057H128.62v6.741h14.051v-6.74zm-2.318 41.422h-14.051v6.741h14.051v-6.741zm-29.539 6.307H96.762v6.741h14.052v-6.741zM85.863 91.965H71.81v6.741h14.052v-6.74zM29.184 110.36H15.132v6.741h14.052v-6.741z" opacity=".1"/><path fill="#00B3E3" d="M6.277 40.402v4.306c0 5.484 4.46 9.929 9.96 9.929 5.501 0 9.96-4.445 9.96-9.929v-4.306H6.278z"/><path fill="#fff" d="M26.198 40.402v4.306c0 5.484 4.46 9.929 9.96 9.929 5.501 0 9.96-4.445 9.96-9.929v-4.306h-19.92z"/><path fill="#00B3E3" d="M46.119 40.402v4.306c0 5.484 4.46 9.929 9.96 9.929 5.5 0 9.96-4.445 9.96-9.929v-4.306h-19.92z"/><path fill="#fff" d="M66.04 40.402v4.306c0 5.484 4.459 9.929 9.96 9.929 5.5 0 9.96-4.445 9.96-9.929v-4.306H66.04z"/><path fill="#00B3E3" d="M85.96 40.402v4.306c0 5.484 4.46 9.929 9.96 9.929 5.502 0 9.961-4.445 9.961-9.929v-4.306h-19.92z"/><path fill="#fff" d="M105.881 40.402v4.306c0 5.484 4.459 9.929 9.96 9.929 5.501 0 9.96-4.445 9.96-9.929v-4.306h-19.92z"/><path fill="#00B3E3" d="M125.802 40.402v4.306c0 5.484 4.459 9.929 9.96 9.929 5.501 0 9.96-4.445 9.96-9.929v-4.306h-19.92z"/><path fill="#333E48" d="M148.274 41.358a3.247 3.247 0 0 1-3.242 3.232H6.968a3.247 3.247 0 0 1-3.242-3.233v-7.601a3.247 3.247 0 0 1 3.242-3.233h138.063a3.247 3.247 0 0 1 3.243 3.233v7.602z"/><path fill="#fff" d="M126.25 66.647H82.402v57.523h43.848V66.647z"/><path fill="#00B3E3" d="M118.519 74.91H90.133v20.317h28.386V74.909z"/><path fill="#fff" d="M111.059 81.352H97.595V86.2h13.464v-4.85z"/><path fill="#333E48" d="M92.56 107.141a2.42 2.42 0 0 0 2.423-2.416 2.42 2.42 0 0 0-2.424-2.416 2.42 2.42 0 0 0-2.424 2.416 2.42 2.42 0 0 0 2.424 2.416zM152 125.098c0 .718-.589 1.306-1.31 1.306H1.31c-.72 0-1.31-.588-1.31-1.306v-4.674c0-.718.59-1.306 1.31-1.306h149.38c.721 0 1.31.588 1.31 1.306v4.674z"/><path fill="#A4A9AD" d="M132.402 119.117H76.251v7.286h56.151v-7.286z"/><path fill="#333E48" d="M71.743 66.647H19.986v35.66h51.757v-35.66z"/><path fill="#00B3E3" d="M52.644 75.32H39.086l-2.975 10.292h19.508l-2.975-10.291z"/><path fill="#fff" d="M48.296 66.647h-4.864v8.674h4.864v-8.674z"/><path fill="#00B3E3" d="M27.194 102.308v-7.08a2.428 2.428 0 0 1 2.432-2.425 2.429 2.429 0 0 1 2.433 2.424v7.081h-4.865zm32.478-.001v-7.08a2.429 2.429 0 0 1 2.433-2.425 2.428 2.428 0 0 1 2.432 2.425v7.08h-4.864z"/></g><defs><clipPath id="a"><path fill="#fff" d="M0 0h152v127H0z"/></clipPath></defs></symbol><symbol id="footer-logo" viewBox="0 0 77 90"><g fill="#CFCCC7" opacity=".45"><path fill-rule="evenodd" d="M71.373 63.08c-4.066 6.33-24.469 5.752-32.912 5.752-8.442 0-27.049 0-32.912-5.753C.391 57.954 0 40.01 0 34.416s.39-23.539 5.55-28.59C11.411 0 30.018 0 38.46 0c8.444 0 27.05 0 32.913 5.827C76.532 10.877 77 28.822 77 34.417c0 5.592-.468 23.537-5.627 28.662zM67.307 9.866C63.788 6.37 49.56 5.75 38.46 5.75c-11.1 0-25.329.62-28.768 4.117-2.736 2.718-3.986 15.304-3.986 24.55 0 9.243 1.25 21.83 3.986 24.548 3.44 3.495 17.667 4.194 28.768 4.194 11.1 0 25.327-.7 28.846-4.194 2.736-2.719 3.908-15.305 3.908-24.549.001-9.245-1.172-21.83-3.908-24.549zm-5.941 32.006h-45.81L12.741 19.81l13.994 9.632 11.726-11.73 11.804 11.731 13.994-9.632-2.893 22.061zm-1.094 8.624H16.73l-.704-4.816h44.873l-.626 4.816zM49.797 35.193L38.461 24.006 27.127 35.193l-8.6-6.06 1.016 8.003h37.836l1.094-8.002-8.676 6.06z" clip-rule="evenodd"/><path d="M22.217 84.818c0 .38.053.717.159 1.01.115.282.264.522.446.717.192.185.408.326.648.424.24.098.49.147.75.147.335 0 .623-.028.863-.082.25-.054.47-.13.663-.228.106-.055.22-.12.346-.196a1.21 1.21 0 0 1 .403-.146c.26-.055.494-.033.706.065.21.098.389.282.532.554.183.337.226.674.13 1.01-.086.337-.254.62-.504.848-.403.37-.888.635-1.455.798A5.723 5.723 0 0 1 24.22 90a6.138 6.138 0 0 1-1.83-.277 4.48 4.48 0 0 1-1.598-.88 4.677 4.677 0 0 1-1.123-1.565c-.279-.64-.418-1.412-.418-2.314v-3.39c0-.901.14-1.667.418-2.297.288-.642.662-1.163 1.123-1.565a4.355 4.355 0 0 1 1.599-.896 6.138 6.138 0 0 1 1.83-.277c.643 0 1.204.076 1.684.228.49.152.874.342 1.153.57.297.24.504.538.619.897a1.33 1.33 0 0 1-.086 1.043c-.145.282-.337.483-.577.602a1.08 1.08 0 0 1-.734.098 1.847 1.847 0 0 1-.447-.146 5.558 5.558 0 0 0-.345-.196 2.313 2.313 0 0 0-.548-.163 4.256 4.256 0 0 0-.72-.049c-.26 0-.509.05-.749.147-.24.098-.456.244-.648.44a2.094 2.094 0 0 0-.447.717 2.835 2.835 0 0 0-.158.994v3.097zm9.779-6.927c.144-.456.389-.793.734-1.01a2.05 2.05 0 0 1 1.124-.342c.365 0 .715.114 1.051.342.346.228.586.565.72 1.01l3.76 11.832h-3.17l-.56-2.02h-3.703l-.547 2.02h-3.11l3.7-11.832zm.706 7.057h2.203l-1.094-4.058-1.11 4.058zm7.454 4.775V79.18c0-.468.033-.864.1-1.19.077-.326.202-.592.375-.799.173-.206.403-.353.691-.44.288-.097.648-.146 1.08-.146H47.2c.211 0 .389.043.533.13.144.087.264.201.36.342.096.142.163.3.202.473.048.174.072.342.072.505 0 .163-.024.332-.072.505a1.36 1.36 0 0 1-.202.457 1.03 1.03 0 0 1-.36.326 1.13 1.13 0 0 1-.533.114h-3.66c-.163 0-.273.032-.33.098-.059.054-.087.179-.087.374v2.054h3.701c.212 0 .39.043.533.13.144.087.264.201.36.343.096.14.164.298.202.472.048.174.072.342.072.505 0 .163-.024.332-.072.505a1.36 1.36 0 0 1-.202.457 1.03 1.03 0 0 1-.36.326 1.13 1.13 0 0 1-.533.114h-3.701v4.89h-2.967zm12.222-8.051h3.932c.21 0 .389.044.533.13.144.087.264.202.36.343.096.141.163.299.201.473a1.722 1.722 0 0 1 0 .977 1.36 1.36 0 0 1-.201.457c-.087.13-.207.239-.36.326a1.132 1.132 0 0 1-.533.114h-3.932v1.906c0 .196.028.326.086.392.058.054.168.081.331.081h3.788c.212 0 .39.044.533.13a.859.859 0 0 1 .36.326c.096.13.164.283.202.457a1.723 1.723 0 0 1 0 .994 1.348 1.348 0 0 1-.202.472 1.148 1.148 0 0 1-.36.343c-.144.087-.321.13-.533.13h-4.911c-.432 0-.792-.043-1.08-.13a1.512 1.512 0 0 1-.692-.457 1.906 1.906 0 0 1-.374-.798 5.996 5.996 0 0 1-.101-1.19v-7.97c0-.466.034-.863.1-1.189.078-.326.202-.592.375-.799.173-.206.404-.353.692-.44.288-.097.648-.146 1.08-.146h4.767c.212 0 .39.043.533.13.144.087.264.201.36.342.096.142.163.3.202.473.048.174.072.342.072.505 0 .163-.024.332-.072.505a1.364 1.364 0 0 1-.202.457 1.03 1.03 0 0 1-.36.326 1.13 1.13 0 0 1-.533.114h-3.644c-.163 0-.273.032-.331.098-.058.054-.086.179-.086.374v1.744z"/></g></symbol><symbol id="header-logo" viewBox="0 0 100 40"><path fill="#FFFCF9" fill-rule="evenodd" d="M39.443 36.446c-2.247 3.657-13.522 3.324-18.188 3.324-4.665 0-14.948 0-18.188-3.324C.216 33.485 0 23.116 0 19.885c0-3.232.216-13.6 3.067-16.519C6.307 0 16.59 0 21.255 0c4.666 0 14.948 0 18.188 3.366 2.852 2.919 3.11 13.287 3.11 16.519 0 3.231-.258 13.6-3.11 16.56zM37.196 5.7c-1.944-2.02-9.806-2.379-15.941-2.379-6.135 0-13.998.359-15.898 2.379-1.513 1.57-2.203 8.842-2.203 14.184 0 5.341.691 12.613 2.203 14.184 1.9 2.019 9.763 2.423 15.898 2.423s13.997-.404 15.941-2.423c1.513-1.571 2.16-8.843 2.16-14.184 0-5.342-.647-12.613-2.16-14.184zm-3.283 18.492H8.597L7.04 11.447l7.734 5.566 6.48-6.777 6.524 6.777 7.733-5.565-1.599 12.747zm-.604 4.983H9.245l-.389-2.783h24.798l-.345 2.783zm-5.79-8.842l-6.264-6.464-6.264 6.464-4.752-3.501.561 4.623h20.91l.604-4.623-4.794 3.5z" clip-rule="evenodd"/><path fill="#FFFCF9" d="M49.826 21.348c0 2.953 1.436 4.664 3.92 4.664 1.19 0 2.154-.39 2.842-1.11.509-.538.838-1.226.838-1.718 0-.305-.172-.5-.479-.5-.24 0-.374.125-.53.469-.487 1.226-1.415 1.86-2.634 1.86-1.855 0-2.91-1.321-2.91-3.657V19.55c0-2.328 1.048-3.664 2.888-3.664 1.197 0 2.094.656 2.61 1.89.165.368.322.485.569.485.277 0 .464-.187.464-.515 0-.461-.322-1.165-.83-1.704-.696-.757-1.646-1.148-2.843-1.148-2.469 0-3.905 1.727-3.905 4.664v1.79zm9.343 4.532c.284 0 .456-.141.568-.508l.965-2.954h3.957l.965 2.954c.12.367.284.507.569.507.299 0 .5-.187.5-.476 0-.125-.03-.25-.074-.383l-3.209-9.36c-.15-.414-.359-.617-.726-.617-.374 0-.575.204-.725.618l-3.217 9.359a1.182 1.182 0 0 0-.067.383c0 .297.195.476.494.476zM61 21.52l1.661-5.055h.045l1.653 5.055H61zm7.938 4.336c.321 0 .53-.235.53-.602V21.02h3.958c.344 0 .56-.188.56-.492 0-.313-.216-.508-.56-.508h-3.957v-3.898h4.353c.344 0 .561-.188.561-.493 0-.312-.217-.508-.56-.508h-4.377c-.733 0-1.024.29-1.024.993v9.14c0 .367.194.602.516.602zm7.173-1.063c0 .704.292.985 1.025.985h4.466c.344 0 .56-.188.56-.492 0-.313-.216-.508-.56-.508h-4.444v-3.953h4.182c.344 0 .56-.188.56-.492 0-.305-.216-.5-.56-.5h-4.182v-3.711h4.451c.344 0 .561-.188.561-.493 0-.312-.217-.508-.561-.508h-4.473c-.733 0-1.025.29-1.025.993v8.68zm12.043-.429c.3 1.117.92 1.484 1.788 1.484.86 0 1.48-.531 1.72-1.484l1.197-4.719h.105l1.174 4.625c.277 1.11.883 1.578 1.818 1.578.882 0 1.436-.484 1.705-1.484l1.87-7.086c.06-.211.105-.586.105-.852 0-.82-.576-1.39-1.406-1.39-.793 0-1.28.523-1.489 1.648l-1.01 5.11h-.142l-1.19-5.172c-.254-1.11-.702-1.586-1.495-1.586-.793 0-1.212.453-1.481 1.586l-1.182 5.171h-.135l-1.084-5.109c-.24-1.148-.689-1.648-1.474-1.648-.845 0-1.421.578-1.421 1.421 0 .258.052.649.157 1.032l1.87 6.875z"/></symbol><symbol id="star-active" viewBox="0 0 22 21"><path fill="#FFFCF9" d="M11.185 0l2.51 7.728h8.127l-6.574 4.777 2.51 7.728-6.573-4.776-6.574 4.776 2.51-7.728L.549 7.728h8.126L11.184 0z"/></symbol><symbol id="star-inactive" viewBox="0 0 22 21"><path fill="#FFFCF9" fill-opacity=".4" d="M11.01 0l2.528 7.782h8.183l-6.62 4.81 2.528 7.781-6.62-4.81-6.619 4.81 2.529-7.782-6.62-4.809H8.48L11.01 0z"/></symbol><symbol id="star-symbol" viewBox="0 0 70 95"><path fill="" fill-opacity=".3" d="M35 0l4.266 13.129H53.07l-11.168 8.114 4.266 13.128L35 26.257l-11.168 8.114 4.266-13.128-11.168-8.114h13.804L35 0z"/><path stroke="" stroke-linecap="round" stroke-opacity=".3" stroke-width="2" d="M1 51h68"/><path fill="" fill-opacity=".3" d="M20.36 67.225H15l11.913 27.72 8.016-17.447L42.816 95 55 67.225l-5.346.01-6.77 15.883-7.979-16.944-7.91 16.944-6.635-15.893z"/></symbol><symbol id="seasonal-menu-choux" viewBox="0 0 283 428"><path fill="url(#a)" d="M0 0h283v428H0z"/><defs><pattern id="a" width="1" height="1" patternContentUnits="objectBoundingBox"><use transform="matrix(.00232 0 0 .00153 0 .195)" xlink:href="#b"/></pattern></defs></symbol><symbol id="seasonal-menu-spring" viewBox="0 0 223 358"><path fill="url(#a)" d="M0 0h223v361H0z"/><defs><pattern id="a" width="1" height="1" patternContentUnits="objectBoundingBox"><use transform="matrix(.00302 0 0 .00187 0 .19)" xlink:href="#b"/></pattern></defs></symbol><symbol id="seasonal-menu-strawberry" viewBox="0 0 283 428"><path fill="url(#a)" d="M0 0h283v428H0z"/><defs><pattern id="a" width="1" height="1" patternContentUnits="objectBoundingBox"><use transform="matrix(.00256 0 0 .0017 0 .208)" xlink:href="#b"/></pattern></defs></symbol></svg>